<?xml version="1.0" encoding="UTF-8"?>
<svg version="1.1" xmlns="http://www.w3.org/2000/svg" width="750" height="337">
<path d="M0 0 C247.5 0 495 0 750 0 C750 111.21 750 222.42 750 337 C502.5 337 255 337 0 337 C0 225.79 0 114.58 0 0 Z " fill="#FDFDFD" transform="translate(0,0)"/>
<path d="M0 0 C2.3359375 -0.43359375 2.3359375 -0.43359375 5 0 C7.2890625 1.65234375 7.2890625 1.65234375 9.625 3.9375 C13.06768788 7.202468 16.53569477 10.29718212 20.25 13.25 C24.70297705 16.84639306 28.89878906 20.64133533 33.0625 24.5625 C37.75060537 28.97692138 42.5240514 33.13232092 47.61328125 37.0859375 C51.17396666 39.94147899 54.51543095 43.02545323 57.87109375 46.1171875 C60.05601736 48.13535665 60.05601736 48.13535665 63 50 C63.1875 53.125 63.1875 53.125 63 56 C58.06083202 58.070247 53.15113964 60.0200694 48 61.5 C44.69325137 62.4520979 41.54941388 63.54790389 38.375 64.875 C33.28136711 66.98187509 28.07521069 68.59293206 22.79638672 70.16162109 C19.60397418 71.12418545 16.60777697 72.16847461 13.53515625 73.48828125 C9.62525405 75.16025048 5.69418509 76.41098898 1.625 77.625 C-3.05048011 78.68435326 -3.05048011 78.68435326 -7 81 C-9.9375 81.1875 -9.9375 81.1875 -13 81 C-15 79 -15 79 -15.08203125 77.1796875 C-14.21346583 69.75282377 -12.84079727 62.43938603 -11.40722656 55.10546875 C-11.00791847 53.04094058 -10.62227392 50.97439645 -10.2421875 48.90625 C-9.09374146 42.66298944 -7.8927301 36.44474744 -6.5 30.25 C-4.99559815 23.43687121 -3.99713334 16.57734624 -3.08984375 9.66308594 C-2.97640625 8.84227539 -2.86296875 8.02146484 -2.74609375 7.17578125 C-2.64997803 6.44270752 -2.5538623 5.70963379 -2.45483398 4.9543457 C-2 3 -2 3 0 0 Z " fill="#83D75F" transform="translate(628,88)"/>
<path d="M0 0 C4.74434662 -0.12119922 7.25562227 0.30693526 11.34375 2.78125 C12.33632813 3.37252686 13.32890625 3.96380371 14.3515625 4.57299805 C15.39054688 5.20890869 16.42953125 5.84481934 17.5 6.5 C19.65611499 7.78798646 21.81236434 9.07574801 23.96875 10.36328125 C25.00644531 10.98928223 26.04414062 11.6152832 27.11328125 12.26025391 C37.58809775 18.80105916 37.58809775 18.80105916 48.8125 23.8125 C49.864375 24.204375 50.91625 24.59625 52 25 C52.495 26.485 52.495 26.485 53 28 C54.2375 28.4021875 54.2375 28.4021875 55.5 28.8125 C58.66667525 29.88690767 61.0495522 31.06553543 63.875 32.8125 C65.04675781 33.53373047 65.04675781 33.53373047 66.2421875 34.26953125 C68 36 68 36 68.78125 38.3671875 C67.45958375 42.82120277 63.53863014 44.18894667 59.625 46.3125 C58.8309375 46.76689453 58.036875 47.22128906 57.21875 47.68945312 C51.34439615 51 51.34439615 51 49 51 C48.67 51.99 48.34 52.98 48 54 C46.32523583 54.76992757 44.6437486 55.52940805 42.92788696 56.20278931 C39.93558211 57.44015305 37.24704966 59.11884423 34.48046875 60.79296875 C33.89582352 61.14386063 33.31117828 61.4947525 32.70881653 61.85627747 C30.86583862 62.96253289 29.02627915 64.07428142 27.1875 65.1875 C24.74645305 66.66515046 22.30208258 68.13705854 19.85546875 69.60546875 C18.77934326 70.25668701 17.70321777 70.90790527 16.59448242 71.57885742 C14 73 14 73 12 73 C11.67 73.99 11.34 74.98 11 76 C9.68 76 8.36 76 7 76 C7 76.66 7 77.32 7 78 C4.625 78.125 4.625 78.125 2 78 C-0.44133237 75.55866763 -0.23458132 74.25891189 -0.24884033 70.92810059 C-0.24164978 70.22463501 -0.23445923 69.52116943 -0.22705078 68.79638672 C-0.22734283 68.0548233 -0.22763489 67.31325989 -0.22793579 66.54922485 C-0.22653994 64.09259429 -0.21096698 61.63626522 -0.1953125 59.1796875 C-0.19158327 57.47860886 -0.18873587 55.77752808 -0.18673706 54.07644653 C-0.17909349 49.59489024 -0.15943884 45.11346317 -0.1373291 40.63195801 C-0.11688622 36.06064604 -0.10773868 31.48931323 -0.09765625 26.91796875 C-0.07619359 17.94525566 -0.04204896 8.97263857 0 0 Z " fill="#FD7604" transform="translate(602,7)"/>
<path d="M0 0 C2.242284 1.21472966 4.25109894 2.52958721 6.29296875 4.0546875 C7.17082031 4.64830078 7.17082031 4.64830078 8.06640625 5.25390625 C12.00425374 8.14486258 13.88068421 11.48579918 15.29296875 16.0546875 C15.59879094 18.80708718 15.77211605 21.25395948 15.73046875 23.9921875 C15.72217041 24.69585449 15.71387207 25.39952148 15.70532227 26.12451172 C15.48648457 32.84228388 14.19331335 37.07036856 9.5390625 41.859375 C4.90875216 46.0546875 4.90875216 46.0546875 2.29296875 46.0546875 C1.96296875 47.0446875 1.63296875 48.0346875 1.29296875 49.0546875 C-9.17436846 49.58393489 -14.99194115 48.86474757 -23.70703125 43.0546875 C-23.68346558 44.1216687 -23.68346558 44.1216687 -23.65942383 45.21020508 C-23.5971121 48.42911854 -23.55805258 51.64790518 -23.51953125 54.8671875 C-23.49439453 55.98673828 -23.46925781 57.10628906 -23.44335938 58.25976562 C-23.42885742 59.86948242 -23.42885742 59.86948242 -23.4140625 61.51171875 C-23.39049683 62.9963562 -23.39049683 62.9963562 -23.36645508 64.51098633 C-23.70703125 67.0546875 -23.70703125 67.0546875 -25.06518555 68.87768555 C-27.39334302 70.54668884 -28.91543252 70.48416423 -31.70703125 70.0546875 C-33.82740228 66.87413096 -33.9668045 66.02780646 -34.01342773 62.37475586 C-34.02941513 61.42624252 -34.04540253 60.47772919 -34.06187439 59.50047302 C-34.06723709 58.47551224 -34.07259979 57.45055145 -34.078125 56.39453125 C-34.08715347 55.33488663 -34.09618195 54.275242 -34.10548401 53.18348694 C-34.12000453 50.93656239 -34.1288777 48.68959539 -34.13256836 46.44262695 C-34.14440234 43.02936744 -34.19351916 39.61795261 -34.24414062 36.20507812 C-34.25361233 34.01823795 -34.26084378 31.83138671 -34.265625 29.64453125 C-34.28515732 28.63374008 -34.30468964 27.62294891 -34.32481384 26.58152771 C-34.27342625 18.37522288 -32.00214206 11.88364308 -26.609375 5.6171875 C-25.96097656 5.1015625 -25.31257812 4.5859375 -24.64453125 4.0546875 C-23.66806641 3.2503125 -23.66806641 3.2503125 -22.671875 2.4296875 C-16.0623325 -2.19567823 -7.63452529 -2.66602471 0 0 Z " fill="#111111" transform="translate(564.70703125,175.9453125)"/>
<path d="M0 0 C6.34745237 6.1998372 7.78053728 11.2875378 7.890625 19.9140625 C7.9118421 22.35933287 7.92726845 24.80465899 7.9375 27.25 C7.958125 28.49007812 7.97875 29.73015625 8 31.0078125 C8.00773438 32.78671875 8.00773438 32.78671875 8.015625 34.6015625 C8.02964355 36.22698975 8.02964355 36.22698975 8.04394531 37.88525391 C7.6875 40.625 7.6875 40.625 6.33496094 42.48974609 C4.07366384 44.04799024 2.36836048 43.84236707 -0.3125 43.625 C-0.8075 40.16 -0.8075 40.16 -1.3125 36.625 C-3.31233534 37.41617904 -3.31233534 37.41617904 -5.3125 38.625 C-5.6425 39.615 -5.9725 40.605 -6.3125 41.625 C-12.97690157 44.50280977 -21.51356811 44.98140651 -28.49609375 43.0078125 C-34.50726034 39.98214736 -38.51277042 33.87439345 -41.1875 27.875 C-43.3410227 21.32416448 -43.61149792 13.66453203 -40.75 7.3125 C-37.56553407 1.88417551 -33.13055132 -2.85656496 -27.3125 -5.375 C-17.02651261 -7.76709009 -8.44181398 -6.55407165 0 0 Z " fill="#141414" transform="translate(510.3125,181.375)"/>
<path d="M0 0 C2.2890625 1.00390625 2.2890625 1.00390625 3.7890625 4.12890625 C4.30228997 5.74977718 4.79986788 7.37562077 5.2890625 9.00390625 C6.09894994 11.40062399 6.91170639 13.79637324 7.7265625 16.19140625 C9.68039504 22.0543625 11.52339394 27.94661902 13.30859375 33.86328125 C14.61023117 38.03266963 16.06944911 42.14274462 17.5546875 46.25 C18.3654732 49.29044636 18.48744473 51.87036868 18.2890625 55.00390625 C17.2890625 56.00390625 17.2890625 56.00390625 15.4765625 56.13671875 C14.7546875 56.13414062 14.0328125 56.1315625 13.2890625 56.12890625 C12.5671875 56.13148438 11.8453125 56.1340625 11.1015625 56.13671875 C9.2890625 56.00390625 9.2890625 56.00390625 8.2890625 55.00390625 C5.09625634 54.4603527 1.89266649 54.03799639 -1.31640625 53.6015625 C-4.61474389 53.02084252 -7.54023173 52.06080817 -10.7109375 51.00390625 C-12.97440882 50.60538944 -15.24611578 50.251122 -17.5234375 49.94140625 C-23.60491656 49.10992719 -23.60491656 49.10992719 -24.7109375 48.00390625 C-27.7740239 47.46707667 -30.84693001 47.03825296 -33.92578125 46.6015625 C-36.7109375 46.00390625 -36.7109375 46.00390625 -38.7109375 44.00390625 C-38.40451227 40.23487593 -37.38875809 38.1713364 -34.8359375 35.44140625 C-34.20945312 34.75949219 -33.58296875 34.07757813 -32.9375 33.375 C-32.20273437 32.59253906 -31.46796875 31.81007813 -30.7109375 31.00390625 C-29.35383325 29.52541878 -27.99680722 28.04685768 -26.6418457 26.56640625 C-25.68328803 25.51969595 -24.72347663 24.47413249 -23.76245117 23.4296875 C-21.18815134 20.63051747 -18.64222033 17.81249902 -16.1484375 14.94140625 C-15.61347656 14.33296875 -15.07851563 13.72453125 -14.52734375 13.09765625 C-13.07799665 11.42701099 -11.65374376 9.73460571 -10.23828125 8.03515625 C-9.35471546 7.00343601 -8.47060272 5.97218392 -7.5859375 4.94140625 C-6.77898438 3.98105469 -5.97203125 3.02070312 -5.140625 2.03125 C-2.7109375 0.00390625 -2.7109375 0.00390625 0 0 Z " fill="#26B4FF" transform="translate(576.7109375,75.99609375)"/>
<path d="M0 0 C7.38506174 -0.56495324 12.53702433 -0.12497132 18.5546875 4.74609375 C25.02152382 10.81241604 25.02152382 10.81241604 25.4296875 14.99609375 C25.1796875 17.43359375 25.1796875 17.43359375 23.1796875 19.43359375 C20.8671875 19.43359375 20.8671875 19.43359375 18.1796875 18.43359375 C16.92236814 16.95060168 15.66800048 15.46392565 14.46875 13.93359375 C11.62881455 10.62894158 8.63462066 9.59772966 4.375 9.1171875 C-2.11659999 8.86626531 -6.86352404 9.02755956 -11.8203125 13.43359375 C-13.23153997 17.14775835 -13.07410833 20.21537375 -12.2734375 24.05859375 C-10.9533583 26.76178053 -10.9533583 26.76178053 -7.58203125 27.65625 C-6.22808139 27.9555035 -4.86950661 28.2343266 -3.5078125 28.49609375 C-2.05549452 28.82202054 -0.60367595 29.15018004 0.84765625 29.48046875 C1.5751709 29.63966797 2.30268555 29.79886719 3.05224609 29.96289062 C18.52983585 33.3873562 18.52983585 33.3873562 23.12890625 39.65234375 C23.47566406 40.24015625 23.82242188 40.82796875 24.1796875 41.43359375 C24.55351562 42.04074219 24.92734375 42.64789063 25.3125 43.2734375 C26.44933006 46.10527094 26.40866309 48.45329342 26.3671875 51.49609375 C26.36074219 52.53894531 26.35429687 53.58179688 26.34765625 54.65625 C26.1796875 57.43359375 26.1796875 57.43359375 25.1796875 60.43359375 C24.5196875 60.43359375 23.8596875 60.43359375 23.1796875 60.43359375 C22.9321875 60.99046875 22.6846875 61.54734375 22.4296875 62.12109375 C20.45037788 65.78281654 18.54709747 68.71390429 14.8046875 70.68359375 C2.70131782 74.14169937 -7.28308169 72.54481055 -18.2578125 66.55859375 C-21.98482065 63.46790407 -24.58629316 60.53976777 -25.1328125 55.62109375 C-24.8203125 53.43359375 -24.8203125 53.43359375 -23.8203125 52.43359375 C-21.1953125 51.87109375 -21.1953125 51.87109375 -17.8203125 52.43359375 C-15.87941741 54.34402636 -14.23690022 56.41118543 -12.51953125 58.5234375 C-7.79487223 63.83460591 0.55634915 63.02633346 7.1796875 63.43359375 C7.1796875 62.77359375 7.1796875 62.11359375 7.1796875 61.43359375 C8.3140625 61.16546875 9.4484375 60.89734375 10.6171875 60.62109375 C11.7928125 60.22921875 12.9684375 59.83734375 14.1796875 59.43359375 C14.5096875 58.44359375 14.8396875 57.45359375 15.1796875 56.43359375 C15.8396875 56.43359375 16.4996875 56.43359375 17.1796875 56.43359375 C16.95180028 54.47256421 16.69663693 52.5146887 16.4296875 50.55859375 C16.29046875 49.46804687 16.15125 48.3775 16.0078125 47.25390625 C15.47593149 44.35181089 15.47593149 44.35181089 13.32421875 43.14453125 C12.61652344 42.90992188 11.90882813 42.6753125 11.1796875 42.43359375 C10.0040625 41.93859375 8.8284375 41.44359375 7.6171875 40.93359375 C4.32420047 39.70102319 1.15065961 39.04008799 -2.3203125 38.49609375 C-8.86312837 37.38145891 -14.25470425 35.54545674 -18.6953125 30.43359375 C-22.76291392 24.69109763 -23.69586945 20.4488587 -22.8203125 13.43359375 C-21.13913834 8.62634441 -18.20064256 5.00465704 -13.8203125 2.43359375 C-9.31748492 0.87936332 -4.71098563 0.53468242 0 0 Z " fill="#121212" transform="translate(172.8203125,153.56640625)"/>
<path d="M0 0 C3.54448465 2.67630116 4.7712035 4.04031098 5.9296875 8.45703125 C5.9296875 9.50890625 5.9296875 10.56078125 5.9296875 11.64453125 C4.9296875 12.64453125 4.9296875 12.64453125 2.1796875 13.08203125 C-1.0703125 12.64453125 -1.0703125 12.64453125 -3.5703125 9.83203125 C-4.18712891 9.01412109 -4.18712891 9.01412109 -4.81640625 8.1796875 C-6.96731436 5.54633271 -8.8400747 4.70169999 -12.0703125 3.64453125 C-18.50234055 3.00752159 -24.65642947 2.65535428 -30.0703125 6.64453125 C-32.27386797 9.32712051 -32.06829988 10.68277112 -31.8828125 14.20703125 C-31.00081589 18.19472868 -31.00081589 18.19472868 -28.0703125 20.64453125 C-24.97024049 21.84502532 -24.97024049 21.84502532 -22.0703125 22.64453125 C-22.0703125 23.30453125 -22.0703125 23.96453125 -22.0703125 24.64453125 C-21.0184375 24.56203125 -19.9665625 24.47953125 -18.8828125 24.39453125 C-11.51974752 24.40767958 -3.80606353 26.56536047 2.0546875 31.01953125 C6.90606479 37.81145945 8.05354268 43.3410964 6.9296875 51.64453125 C4.81807124 57.85696749 0.80689958 60.82342628 -4.88671875 63.734375 C-12.46329539 66.89241142 -23.81770128 67.0945818 -31.6328125 64.58203125 C-36.96282846 61.57784044 -40.69177006 57.71234491 -44.0703125 52.64453125 C-44.1953125 49.95703125 -44.1953125 49.95703125 -44.0703125 47.64453125 C-41.0078125 46.64453125 -41.0078125 46.64453125 -37.0703125 46.64453125 C-35.02859262 48.49704002 -33.4450676 50.5362225 -31.734375 52.6953125 C-28.71133014 56.23639087 -25.76328751 56.47451537 -21.30859375 56.921875 C-14.93265378 57.24987191 -10.73975186 56.64649452 -5.49609375 52.93359375 C-3.65094409 51.26537625 -3.12906785 50.07932087 -2.796875 47.62109375 C-2.69256138 45.20583219 -2.67028339 43.03193904 -3.0703125 40.64453125 C-5.42864022 38.17244329 -5.42864022 38.17244329 -8.0703125 36.64453125 C-8.0703125 35.98453125 -8.0703125 35.32453125 -8.0703125 34.64453125 C-9.09769531 34.55816406 -10.12507813 34.47179687 -11.18359375 34.3828125 C-20.74777051 33.46631788 -30.18424472 32.54774312 -37.296875 25.41015625 C-41.01079476 20.64568548 -42.99276043 16.70316932 -42.42578125 10.60546875 C-41.3800893 4.83692636 -38.80707251 1.07154265 -34.0703125 -2.35546875 C-22.75156324 -7.84086622 -10.31273822 -6.75192483 0 0 Z " fill="#0F0F0F" transform="translate(386.0703125,159.35546875)"/>
<path d="M0 0 C2.375 0.75 2.375 0.75 3.375 1.75 C2.93384741 7.55051722 1.63653468 12.58942345 -0.3125 18.046875 C-0.57506592 18.8029303 -0.83763184 19.5589856 -1.1081543 20.33795166 C-1.93968988 22.72796778 -2.78187734 25.11404979 -3.625 27.5 C-4.46593265 29.9009446 -5.30462805 32.3026526 -6.1418457 34.70489502 C-6.66118456 36.19275544 -7.18304396 37.67973915 -7.70776367 39.16571045 C-8.82054061 42.33387078 -9.90526742 45.46674931 -10.625 48.75 C-14.09 49.245 -14.09 49.245 -17.625 49.75 C-19.78743923 44.96922268 -21.38551156 40.3525296 -22.6875 35.25 C-23.93626732 30.39535435 -25.24261443 25.56827337 -26.625 20.75 C-26.96263522 19.41774952 -27.29696585 18.08464695 -27.625 16.75 C-27.82134033 17.40484375 -28.01768066 18.0596875 -28.2199707 18.734375 C-29.12300909 21.74043401 -30.03022363 24.74521749 -30.9375 27.75 C-31.24623047 28.77996094 -31.55496094 29.80992187 -31.87304688 30.87109375 C-36.69980736 46.82480736 -36.69980736 46.82480736 -38.625 48.75 C-40.62458364 48.79080783 -42.62545254 48.79254356 -44.625 48.75 C-47.93547002 40.80895598 -50.81891538 32.72730995 -53.62646484 24.59838867 C-54.38046515 22.42172307 -55.14527379 20.24903357 -55.91015625 18.07617188 C-56.39389802 16.67991905 -56.87699447 15.28344244 -57.359375 13.88671875 C-57.58743835 13.24393478 -57.81550171 12.60115082 -58.05047607 11.93888855 C-59.24261375 8.44265209 -59.9817264 5.44911619 -59.625 1.75 C-58.625 0.75 -58.625 0.75 -55.5625 0.6875 C-54.1084375 0.7184375 -54.1084375 0.7184375 -52.625 0.75 C-49.44169242 7.44184796 -47.05700548 14.23737063 -44.875 21.3125 C-44.55917969 22.32119141 -44.24335938 23.32988281 -43.91796875 24.36914062 C-43.14885367 26.82797824 -42.38463817 29.2882215 -41.625 31.75 C-39.83148757 29.05973135 -39.20312598 27.64419803 -38.4765625 24.6171875 C-38.27764404 23.81450439 -38.07872559 23.01182129 -37.8737793 22.18481445 C-37.66793213 21.34007568 -37.46208496 20.49533691 -37.25 19.625 C-35.57909389 12.99072195 -33.74431675 6.87310324 -30.625 0.75 C-28.645 0.75 -26.665 0.75 -24.625 0.75 C-22.00409461 7.29832818 -20.16906683 13.91779312 -18.4375 20.75 C-18.16486328 21.81089844 -17.89222656 22.87179688 -17.61132812 23.96484375 C-16.94528252 26.55891612 -16.2832757 29.15394715 -15.625 31.75 C-13.59619285 28.70678928 -12.79684797 26.36590989 -11.78515625 22.875 C-11.2737207 21.15023437 -11.2737207 21.15023437 -10.75195312 19.390625 C-10.04262456 16.96459117 -9.33689073 14.53750339 -8.63476562 12.109375 C-8.29251953 10.95953125 -7.95027344 9.8096875 -7.59765625 8.625 C-7.29093994 7.57054687 -6.98422363 6.51609375 -6.66821289 5.4296875 C-5.20927845 1.68214141 -4.21301281 -0.40123932 0 0 Z " fill="#131313" transform="translate(459.625,175.25)"/>
<path d="M0 0 C2.375 -0.125 2.375 -0.125 5 0 C7 2 7 2 7.22705078 5.80712891 C7.22673346 7.4469742 7.21539681 9.08684017 7.1953125 10.7265625 C7.1924826 11.58937836 7.18965271 12.45219421 7.18673706 13.34115601 C7.17552333 16.1025772 7.15041684 18.8636765 7.125 21.625 C7.11497173 23.49478699 7.10584562 25.36457905 7.09765625 27.234375 C7.07558012 31.82304109 7.04104234 36.41146593 7 41 C7.66 41 8.32 41 9 41 C9 40.34 9 39.68 9 39 C9.66 39 10.32 39 11 39 C11 38.34 11 37.68 11 37 C12.3984375 35.58984375 12.3984375 35.58984375 14.375 33.9375 C16.84404082 31.85876936 19.24473225 29.76674536 21.58203125 27.5390625 C22.44183594 26.72179687 23.30164063 25.90453125 24.1875 25.0625 C24.98542969 24.29035156 25.78335938 23.51820313 26.60546875 22.72265625 C29.37669044 20.72900411 30.66091998 20.45564578 34 21 C36 23 36 23 36.0234375 25.23828125 C34.5303032 29.26746427 31.81513584 31.40644408 28.625 34.1875 C28.03460938 34.72052734 27.44421875 35.25355469 26.8359375 35.80273438 C24.2918937 38.08034116 21.85085941 40.09942706 19 42 C18.76883547 44.26678986 18.76883547 44.26678986 21.109375 46.19140625 C21.56634766 46.6311377 22.02332031 47.07086914 22.49414062 47.52392578 C25.22316218 50.19896863 27.72926499 53.06769261 30.25 55.9375 C30.79140625 56.53240234 31.3328125 57.12730469 31.890625 57.74023438 C35.044529 61.34751208 36.97082674 63.98949326 37 69 C35 71 35 71 32.59033203 71.34863281 C29.28937065 70.90435639 28.59045676 70.00492013 26.5546875 67.421875 C25.65169922 66.29845703 25.65169922 66.29845703 24.73046875 65.15234375 C24.11816406 64.35957031 23.50585938 63.56679687 22.875 62.75 C22.25496094 61.97269531 21.63492188 61.19539063 20.99609375 60.39453125 C18.27462104 56.970743 15.6162864 53.50474388 13 50 C10.24358584 50.49756092 10.24358584 50.49756092 8 52 C7.76281257 55.6105197 7.60344319 59.21419749 7.48242188 62.83007812 C7.21328125 68.78671875 7.21328125 68.78671875 5 71 C2.375 71.125 2.375 71.125 0 71 C-1.41226572 68.17546856 -1.12726444 65.81297487 -1.12939453 62.65429688 C-1.13114685 62.00372818 -1.13289917 61.35315948 -1.13470459 60.68287659 C-1.13911298 58.52814075 -1.13618868 56.3734867 -1.1328125 54.21875 C-1.13348583 52.724243 -1.1344561 51.22973611 -1.13571167 49.73522949 C-1.13718727 46.60130776 -1.1350385 43.46741452 -1.13037109 40.33349609 C-1.12467388 36.31156904 -1.12795362 32.28970872 -1.13394356 28.26778412 C-1.13755288 25.18120824 -1.13640887 22.09464825 -1.13381577 19.0080719 C-1.13314753 17.52486666 -1.13397134 16.04165999 -1.13629532 14.55845642 C-1.13882791 12.48749966 -1.13497267 10.41665176 -1.12939453 8.34570312 C-1.12859894 7.16592896 -1.12780334 5.98615479 -1.12698364 4.77062988 C-1 2 -1 2 0 0 Z " fill="#0E0E0E" transform="translate(214,154)"/>
<path d="M0 0 C4.35481904 2.10232644 7.17544549 4.86623755 10 8.75 C11.73851048 14.40015906 12.15117633 19.25252583 9.828125 24.796875 C7.15207632 29.56962162 5.44178787 32.44756279 0 34 C-4.83393416 34.56285535 -9.76761018 34.58646045 -14 32 C-18.6004672 27.32111575 -20.15053353 24.21577839 -20.1875 17.6875 C-20.20876953 15.99173828 -20.20876953 15.99173828 -20.23046875 14.26171875 C-19.88895845 9.4284798 -18.59815823 6.03297613 -15.0625 2.6875 C-10.42448753 -1.03257251 -5.69146148 -1.22484824 0 0 Z " fill="#F6F6F6" transform="translate(561,183)"/>
<path d="M0 0 C4.75360212 1.87913152 7.55291712 5.5495391 10.12109375 9.8984375 C12.04660149 14.50254045 11.92654119 19.72193385 10.0546875 24.32421875 C7.62288712 28.46133827 5.40509228 30.89728598 1 33 C-4.32778931 33.85992389 -10.49389338 34.64674151 -15.17578125 31.5703125 C-16.72895928 29.77432997 -17.89181993 28.09701767 -19 26 C-19.37125 25.36449219 -19.7425 24.72898438 -20.125 24.07421875 C-22.05098762 19.50859632 -21.38928031 14.09238166 -20.5 9.3125 C-15.2999552 1.29576426 -9.52503083 -1.67131752 0 0 Z " fill="#F4F4F4" transform="translate(498,183)"/>
<path d="M0 0 C1.67140023 1.67140023 1.15047452 3.71112039 1.17358398 6.00708008 C1.18707382 7.07521439 1.20056366 8.14334869 1.21446228 9.24385071 C1.22490067 10.40732529 1.23533905 11.57079987 1.24609375 12.76953125 C1.27903464 15.20898793 1.31224625 17.64844097 1.34570312 20.08789062 C1.39313558 23.95252952 1.43754728 27.81715388 1.47680664 31.68188477 C1.51647675 35.39876062 1.56803995 39.11532576 1.62109375 42.83203125 C1.6295079 43.98943314 1.63792206 45.14683502 1.64659119 46.33930969 C1.66323318 47.41690048 1.67987518 48.49449127 1.69702148 49.60473633 C1.70732895 50.55214188 1.71763641 51.49954742 1.72825623 52.47566223 C2.01348562 55.12527337 2.56383588 56.7668436 4 59 C5.93981618 59.90609992 5.93981618 59.90609992 8.125 60.25 C9.40375 60.4975 10.6825 60.745 12 61 C11.125 67.875 11.125 67.875 10 69 C6.94647316 69.44162578 4.04860236 69.48299833 1 69 C-1.9375 66.5625 -1.9375 66.5625 -4 64 C-4.66 63.67 -5.32 63.34 -6 63 C-8.61935217 56.51713212 -8.25523475 49.96737433 -8.1953125 43.06640625 C-8.1924826 41.83333237 -8.18965271 40.60025848 -8.18673706 39.32981873 C-8.1755786 35.40727875 -8.15048151 31.4849705 -8.125 27.5625 C-8.11383396 24.89648772 -8.10583976 22.23047761 -8.09765625 19.56445312 C-8.07565341 13.04289023 -8.04221878 6.52146168 -8 0 C-4.69676014 -1.10107995 -3.29495231 -0.86709271 0 0 Z " fill="#0F0F0F" transform="translate(324,156)"/>
<path d="M0 0 C1.67140023 1.67140023 1.15047452 3.71112039 1.17358398 6.00708008 C1.18707382 7.07521439 1.20056366 8.14334869 1.21446228 9.24385071 C1.22490067 10.40732529 1.23533905 11.57079987 1.24609375 12.76953125 C1.27903464 15.20898793 1.31224625 17.64844097 1.34570312 20.08789062 C1.39313558 23.95252952 1.43754728 27.81715388 1.47680664 31.68188477 C1.51647675 35.39876062 1.56803995 39.11532576 1.62109375 42.83203125 C1.6295079 43.98943314 1.63792206 45.14683502 1.64659119 46.33930969 C1.66323318 47.41690048 1.67987518 48.49449127 1.69702148 49.60473633 C1.70732895 50.55214188 1.71763641 51.49954742 1.72825623 52.47566223 C2.01348562 55.12527337 2.56383588 56.7668436 4 59 C5.93981618 59.90609992 5.93981618 59.90609992 8.125 60.25 C9.40375 60.4975 10.6825 60.745 12 61 C11.125 67.875 11.125 67.875 10 69 C6.94647316 69.44162578 4.04860236 69.48299833 1 69 C-1.9375 66.5625 -1.9375 66.5625 -4 64 C-4.66 63.67 -5.32 63.34 -6 63 C-8.61935217 56.51713212 -8.25523475 49.96737433 -8.1953125 43.06640625 C-8.1924826 41.83333237 -8.18965271 40.60025848 -8.18673706 39.32981873 C-8.1755786 35.40727875 -8.15048151 31.4849705 -8.125 27.5625 C-8.11383396 24.89648772 -8.10583976 22.23047761 -8.09765625 19.56445312 C-8.07565341 13.04289023 -8.04221878 6.52146168 -8 0 C-4.69676014 -1.10107995 -3.29495231 -0.86709271 0 0 Z " fill="#0F0F0F" transform="translate(297,156)"/>
<path d="M0 0 C3.0625 0.125 3.0625 0.125 5.0625 1.125 C5.1130963 7.49703593 5.14818957 13.8690203 5.17236328 20.24121094 C5.18243789 22.41017594 5.19609798 24.57912731 5.21337891 26.74804688 C5.23756323 29.86071126 5.24896832 32.97319651 5.2578125 36.0859375 C5.26813507 37.059935 5.27845764 38.0339325 5.28909302 39.03744507 C5.28924408 39.93822784 5.28939514 40.83901062 5.28955078 41.76708984 C5.293992 42.56206879 5.29843323 43.35704773 5.30300903 44.17611694 C5.0625 46.125 5.0625 46.125 3.0625 48.125 C-0.5625 48.25 -0.5625 48.25 -3.9375 48.125 C-3.96276945 41.4497966 -3.98033268 34.77460543 -3.99243164 28.09936523 C-3.99747325 25.82657409 -4.00430637 23.5537862 -4.01293945 21.28100586 C-4.02501261 18.02196449 -4.03072987 14.76296583 -4.03515625 11.50390625 C-4.04031754 10.48099991 -4.04547882 9.45809357 -4.05079651 8.40419006 C-4.05087204 7.46329025 -4.05094757 6.52239044 -4.05102539 5.55297852 C-4.053246 4.72024918 -4.05546661 3.88751984 -4.05775452 3.02955627 C-3.85744301 -0.14291944 -3.22543093 0.13725238 0 0 Z " fill="#0E0E0E" transform="translate(268.9375,175.875)"/>
<path d="M0 0 C2.6875 1.62109375 2.6875 1.62109375 5 4 C5.6640625 7.09375 5.6640625 7.09375 5.625 10.5 C5.63789063 11.6240625 5.65078125 12.748125 5.6640625 13.90625 C5 17 5 17 2.69140625 19.3828125 C-0.76631398 21.46045572 -3.03238152 21.44916436 -7 21 C-7.66 20.34 -8.32 19.68 -9 19 C-9 18.01 -9 17.02 -9 16 C-6.03 16.33 -3.06 16.66 0 17 C0.66 15.68 1.32 14.36 2 13 C1.01 13.495 1.01 13.495 0 14 C-6.29084967 14.57189542 -6.29084967 14.57189542 -8.9375 12.4375 C-10.39343329 9.09741776 -10.3931463 6.60384106 -10 3 C-7.7736336 -1.05984462 -4.20623109 -0.50764858 0 0 Z " fill="#383838" transform="translate(453,272)"/>
<path d="M0 0 C9 0 9 0 12.125 2.0625 C14 5 14 5 14 8.6875 C13 12 13 12 10 14 C7.66800612 14.07905064 5.33167378 14.08798769 3 14 C3 16.64 3 19.28 3 22 C2.01 22 1.02 22 0 22 C0 14.74 0 7.48 0 0 Z " fill="#3B3B3B" transform="translate(151,265)"/>
<path d="M0 0 C2.09765625 0.43359375 2.09765625 0.43359375 4.16015625 2.30859375 C5.48141467 6.71278847 5.33684745 10.87124304 5.09765625 15.43359375 C-4.91942987 16.21078147 -4.91942987 16.21078147 -8.58984375 13.30859375 C-10.10971262 9.97935719 -10.44109861 8.05094783 -9.90234375 4.43359375 C-8.02351763 -0.32609909 -4.61973557 -0.24788825 0 0 Z " fill="#575757" transform="translate(502.90234375,271.56640625)"/>
<path d="M0 0 C3.13802937 1.84188681 4.62662381 3.0292219 5.9375 6.4375 C6.01149553 9.47131684 5.41107653 11.32638131 4 14 C0.78195852 15.60902074 -2.51947705 15.59842983 -6 15 C-9.327349 12.25493707 -9.92106131 10.65406343 -10.4375 6.375 C-10 3 -10 3 -8.9375 1.0625 C-5.82412541 -0.64483445 -3.48070825 -0.42008548 0 0 Z " fill="#CDCDCD" transform="translate(305,272)"/>
<path d="M0 0 C8.3984375 -0.1953125 8.3984375 -0.1953125 11 0 C13 2 13 2 13.375 5.875 C13.28707416 8.89745069 13.07715786 9.8812956 11.375 12.5 C8.39901677 14.37956836 6.45669582 14.31424507 3 14 C3 16.31 3 18.62 3 21 C2.01 21 1.02 21 0 21 C0 14.07 0 7.14 0 0 Z " fill="#303030" transform="translate(470,266)"/>
<path d="M0 0 C2.4375 1.875 2.4375 1.875 4 5 C4.31312942 8.36229135 4.23524842 11.63464065 4 15 C-6.01708612 15.77718772 -6.01708612 15.77718772 -9.6875 12.875 C-11.21751965 9.52352838 -11.6191438 7.63746981 -11 4 C-8.07075041 -0.45245938 -5.11843736 -0.822606 0 0 Z " fill="#6A6A6A" transform="translate(377,272)"/>
<path d="M0 0 C2.50031654 3.75047482 2.53603554 5.55856266 2 10 C-0.47057897 13.41521211 -1.91150263 14.77785768 -6.0625 15.625 C-9 15 -9 15 -11.375 12.875 C-13.28071139 9.50335677 -13.64850195 7.80994895 -13 4 C-10.06577022 -0.8478579 -5.21425269 -1.11733986 0 0 Z " fill="#353535" transform="translate(544,272)"/>
<path d="M0 0 C3 1.4375 3 1.4375 5 4 C5.32035881 7.16424579 5.15437184 10.02505168 4 13 C0.68548944 15.19818892 -2.06330876 15.57410081 -6 15 C-9.20220123 12.21914104 -9.92791739 10.59725593 -10.4375 6.375 C-10 3 -10 3 -8.9375 1.0625 C-5.82412541 -0.64483445 -3.48070825 -0.42008548 0 0 Z " fill="#474747" transform="translate(244,272)"/>
<path d="M0 0 C0 0.66 0 1.32 0 2 C-0.99 2.33 -1.98 2.66 -3 3 C-3.73323796 5.01508358 -3.73323796 5.01508358 -4 7 C-3.01 7.33 -2.02 7.66 -1 8 C-1.99 8 -2.98 8 -4 8 C-4 12.29 -4 16.58 -4 21 C-4.99 21 -5.98 21 -7 21 C-7 17.04 -7 13.08 -7 9 C-9.31 9 -11.62 9 -14 9 C-14 11.97 -14 14.94 -14 18 C-13.01 18 -12.02 18 -11 18 C-11 18.66 -11 19.32 -11 20 C-12.98 20 -14.96 20 -17 20 C-18.28317892 16.15046324 -18.06643637 13.05261865 -18 9 C-18.66 9 -19.32 9 -20 9 C-20 8.01 -20 7.02 -20 6 C-19.34 6 -18.68 6 -18 6 C-17.67 4.35 -17.34 2.7 -17 1 C-16.01 1.33 -15.02 1.66 -14 2 C-14 3.32 -14 4.64 -14 6 C-12.02 6 -10.04 6 -8 6 C-7.9175 5.38125 -7.835 4.7625 -7.75 4.125 C-7 2 -7 2 -5.125 0.75 C-3 0 -3 0 0 0 Z " fill="#282828" transform="translate(530,266)"/>
<path d="M0 0 C2.4375 1.125 2.4375 1.125 4 3 C4.25 6.1875 4.25 6.1875 4 9 C0.7 9 -2.6 9 -6 9 C-6 9.99 -6 10.98 -6 12 C-3.03 12 -0.06 12 3 12 C2.67 12.99 2.34 13.98 2 15 C-5.26605505 15.60550459 -5.26605505 15.60550459 -8.5 12.9375 C-10.35306455 9.30858192 -10.52177189 7.02509747 -10 3 C-7.77455145 -1.05817089 -4.20489208 -0.44262022 0 0 Z " fill="#626262" transform="translate(360,272)"/>
<path d="M0 0 C1.9375 1.125 1.9375 1.125 3 3 C3.1875 6.1875 3.1875 6.1875 3 9 C-0.3 9 -3.6 9 -7 9 C-6.67 9.66 -6.34 10.32 -6 11 C-4.10466658 11.46523063 -4.10466658 11.46523063 -1.9375 11.625 C-0.638125 11.74875 0.66125 11.8725 2 12 C1.01 13.485 1.01 13.485 0 15 C-4.34586828 15.39507893 -6.32003497 15.45331002 -10 13 C-10.96076482 10.01990313 -11.1717896 7.11992075 -11 4 C-8.29187238 -0.62638469 -5.06442478 -0.64456315 0 0 Z " fill="#4F4F4F" transform="translate(177,272)"/>
<path d="M0 0 C2.4375 1.1875 2.4375 1.1875 4 3 C4.3125 5.625 4.3125 5.625 4 8 C3 9 3 9 0.71484375 9.09765625 C-0.65994141 9.08025391 -0.65994141 9.08025391 -2.0625 9.0625 C-2.98160156 9.05347656 -3.90070313 9.04445313 -4.84765625 9.03515625 C-5.55792969 9.02355469 -6.26820313 9.01195312 -7 9 C-6.67 9.66 -6.34 10.32 -6 11 C-4.10466658 11.46523063 -4.10466658 11.46523063 -1.9375 11.625 C-0.638125 11.74875 0.66125 11.8725 2 12 C2 12.66 2 13.32 2 14 C-1.1875 14.8125 -1.1875 14.8125 -5 15 C-7.9375 13 -7.9375 13 -10 10 C-10.48582979 6.47773401 -10.66638145 4.21516617 -8.9375 1.0625 C-5.87116726 -0.61903731 -3.42486249 -0.36051184 0 0 Z " fill="#656565" transform="translate(193,272)"/>
<path d="M0 0 C2.05859375 0.43359375 2.05859375 0.43359375 4.05859375 3.43359375 C4.05859375 5.08359375 4.05859375 6.73359375 4.05859375 8.43359375 C0.42859375 8.43359375 -3.20140625 8.43359375 -6.94140625 8.43359375 C-6.61140625 9.42359375 -6.28140625 10.41359375 -5.94140625 11.43359375 C-3.30140625 11.76359375 -0.66140625 12.09359375 2.05859375 12.43359375 C2.05859375 13.09359375 2.05859375 13.75359375 2.05859375 14.43359375 C-0.81611118 15.87094621 -2.76035213 15.81532024 -5.94140625 15.43359375 C-8.84813257 12.83283862 -9.82621753 11.23991479 -10.37890625 7.37109375 C-9.35138168 0.47200019 -6.36299442 -0.01044827 0 0 Z " fill="#565656" transform="translate(288.94140625,271.56640625)"/>
<path d="M0 0 C1.86011719 -0.02126953 1.86011719 -0.02126953 3.7578125 -0.04296875 C6.875 0.1875 6.875 0.1875 8.875 2.1875 C9.0703125 5.0078125 9.0703125 5.0078125 9 8.3125 C8.98195313 9.40820312 8.96390625 10.50390625 8.9453125 11.6328125 C8.92210937 12.47585938 8.89890625 13.31890625 8.875 14.1875 C8.215 14.1875 7.555 14.1875 6.875 14.1875 C6.38 9.2375 6.38 9.2375 5.875 4.1875 C4.225 4.1875 2.575 4.1875 0.875 4.1875 C0.545 7.4875 0.215 10.7875 -0.125 14.1875 C-0.785 14.1875 -1.445 14.1875 -2.125 14.1875 C-2.455 10.8875 -2.785 7.5875 -3.125 4.1875 C-4.775 4.1875 -6.425 4.1875 -8.125 4.1875 C-8.455 7.4875 -8.785 10.7875 -9.125 14.1875 C-9.785 14.1875 -10.445 14.1875 -11.125 14.1875 C-11.125 9.8975 -11.125 5.6075 -11.125 1.1875 C-7.21262291 0.20940573 -4.01634382 0.02096213 0 0 Z " fill="#2B2B2B" transform="translate(575.125,271.8125)"/>
<path d="M0 0 C1.5675 -0.061875 3.135 -0.12375 4.75 -0.1875 C6.07257813 -0.23970703 6.07257813 -0.23970703 7.421875 -0.29296875 C10.58892512 0.06692331 11.86402869 0.62669854 14 3 C14.390625 5.91796875 14.390625 5.91796875 14.25 9.1875 C14.21390625 10.27417969 14.1778125 11.36085938 14.140625 12.48046875 C14.07101562 13.72763672 14.07101562 13.72763672 14 15 C13.01 15 12.02 15 11 15 C10.67 11.37 10.34 7.74 10 4 C8.02 4 6.04 4 4 4 C3.67 7.63 3.34 11.26 3 15 C2.01 15 1.02 15 0 15 C0 10.05 0 5.1 0 0 Z " fill="#4D4D4D" transform="translate(425,272)"/>
<path d="M0 0 C0.99 0.66 1.98 1.32 3 2 C3.39964378 5.1305429 3.52149743 7.13083761 1.875 9.875 C-0.88090884 11.52854531 -2.85075452 11.39365568 -6 11 C-7.875 9.8125 -7.875 9.8125 -9 8 C-9.42822025 5.14519831 -9.40659584 3.65507108 -7.875 1.1875 C-5.15523346 -0.53501881 -3.15413751 -0.32855599 0 0 Z " fill="#181818" transform="translate(272,156)"/>
<path d="M0 0 C2.31 0 4.62 0 7 0 C6.03320312 0.35191406 6.03320312 0.35191406 5.046875 0.7109375 C2.7922092 1.81161073 2.7922092 1.81161073 2.390625 4.1640625 C2.34421875 4.97617187 2.2978125 5.78828125 2.25 6.625 C2.1675 8.06875 2.085 9.5125 2 11 C6.455 10.01 6.455 10.01 11 9 C11 7.02 11 5.04 11 3 C11.66 3 12.32 3 13 3 C13.28571429 10.42857143 13.28571429 10.42857143 11 14 C8.36 14 5.72 14 3 14 C3 15.98 3 17.96 3 20 C2.01 20 1.02 20 0 20 C0 13.4 0 6.8 0 0 Z " fill="#4D4D4D" transform="translate(264,266)"/>
<path d="M0 0 C3.3 0 6.6 0 10 0 C12.16781407 4.33562815 12.27312674 5.49509 11 10 C7.5647952 12.29013653 6.014669 12.17842973 2 12 C1.97310784 10.52093108 1.95365379 9.04172517 1.9375 7.5625 C1.92589844 6.73878906 1.91429687 5.91507812 1.90234375 5.06640625 C2 3 2 3 3 2 C2.01 1.34 1.02 0.68 0 0 Z " fill="#707070" transform="translate(264,265)"/>
<path d="M0 0 C0.99 0 1.98 0 3 0 C3 5.94 3 11.88 3 18 C6.63 18 10.26 18 14 18 C14 18.99 14 19.98 14 21 C9.38 21 4.76 21 0 21 C0 14.07 0 7.14 0 0 Z " fill="#383838" transform="translate(334,266)"/>
<path d="M0 0 C0.66 0.33 1.32 0.66 2 1 C1.01 2.32 0.02 3.64 -1 5 C1.97 5 4.94 5 8 5 C8.33 4.34 8.66 3.68 9 3 C9 4.32 9 5.64 9 7 C5.7 7 2.4 7 -1 7 C-0.67 7.99 -0.34 8.98 0 10 C2.97 10.33 5.94 10.66 9 11 C8.67 11.99 8.34 12.98 8 14 C0.73394495 14.60550459 0.73394495 14.60550459 -2.5 11.9375 C-4.30854114 8.3957736 -4.30788712 5.92556076 -4 2 C-2.125 0.9375 -2.125 0.9375 0 0 Z " fill="#3C3C3C" transform="translate(299,273)"/>
<path d="M0 0 C0.99 0.495 0.99 0.495 2 1 C2 12.55 2 24.1 2 36 C2.66 36.33 3.32 36.66 4 37 C3.34 37 2.68 37 2 37 C2 37.66 2 38.32 2 39 C1.34 39 0.68 39 0 39 C0 26.13 0 13.26 0 0 Z " fill="#BBBBBB" transform="translate(221,156)"/>
<path d="M0 0 C0.99 0 1.98 0 3 0 C3 1.98 3 3.96 3 6 C3.99 6 4.98 6 6 6 C6 6.66 6 7.32 6 8 C5.01 8 4.02 8 3 8 C3.33 10.64 3.66 13.28 4 16 C4.99 16.33 5.98 16.66 7 17 C7 17.99 7 18.98 7 20 C4.625 19.6875 4.625 19.6875 2 19 C-0.67927341 14.98108988 -0.15601248 12.75838077 0 8 C-0.66 8 -1.32 8 -2 8 C-2 7.34 -2 6.68 -2 6 C-1.34 6 -0.68 6 0 6 C0 4.02 0 2.04 0 0 Z " fill="#404040" transform="translate(224,267)"/>
<path d="M0 0 C3.0625 0.1875 3.0625 0.1875 5.0625 2.1875 C5.3125 4.6875 5.3125 4.6875 5.0625 7.1875 C3.0625 9.1875 3.0625 9.1875 -0.0625 9.3125 C-1.485625 9.250625 -1.485625 9.250625 -2.9375 9.1875 C-4.30373674 6.45502652 -4.065926 4.20551098 -3.9375 1.1875 C-2.9375 0.1875 -2.9375 0.1875 0 0 Z " fill="#E8E8E8" transform="translate(449.9375,274.8125)"/>
<path d="M0 0 C3.0625 0.1875 3.0625 0.1875 5.0625 2.1875 C5.3125 4.6875 5.3125 4.6875 5.0625 7.1875 C3.0625 9.1875 3.0625 9.1875 -0.0625 9.3125 C-1.485625 9.250625 -1.485625 9.250625 -2.9375 9.1875 C-4.30373674 6.45502652 -4.065926 4.20551098 -3.9375 1.1875 C-2.9375 0.1875 -2.9375 0.1875 0 0 Z " fill="#E8E8E8" transform="translate(240.9375,274.8125)"/>
<path d="M0 0 C1 1 1 1 1.1875 3.9375 C1 7 1 7 -1 9 C-3.5 9.25 -3.5 9.25 -6 9 C-8 7 -8 7 -8.125 3.875 C-8.08375 2.92625 -8.0425 1.9775 -8 1 C-5.05549278 0.01849759 -3.06481021 -0.1613058 0 0 Z " fill="#E8E8E8" transform="translate(504,275)"/>
<path d="M0 0 C2.16259221 2.18785614 2.94341269 3.50203165 3.29296875 6.578125 C3.25816406 7.45984375 3.22335937 8.3415625 3.1875 9.25 C3.16042969 10.14203125 3.13335937 11.0340625 3.10546875 11.953125 C3.07066406 12.62859375 3.03585937 13.3040625 3 14 C2.34 14 1.68 14 1 14 C0.93941406 13.28972656 0.87882812 12.57945312 0.81640625 11.84765625 C0.73261719 10.92855469 0.64882813 10.00945312 0.5625 9.0625 C0.48128906 8.14597656 0.40007812 7.22945313 0.31640625 6.28515625 C0.23955024 4.03840268 0.23955024 4.03840268 -1 3 C-3.5 2.83333333 -3.5 2.83333333 -6 3 C-7.66342837 4.66342837 -7.36048097 6.7825709 -7.5625 9.0625 C-7.68818359 10.44115234 -7.68818359 10.44115234 -7.81640625 11.84765625 C-7.87699219 12.55792969 -7.93757813 13.26820313 -8 14 C-8.66 14 -9.32 14 -10 14 C-10 9.71 -10 5.42 -10 1 C-6.33103904 0.08275976 -3.73279521 -0.39710587 0 0 Z " fill="#272727" transform="translate(409,272)"/>
<path d="M0 0 C0 0.66 0 1.32 0 2 C-0.99 2.33 -1.98 2.66 -3 3 C-3.73323796 5.01508358 -3.73323796 5.01508358 -4 7 C-3.01 7.33 -2.02 7.66 -1 8 C-1.99 8 -2.98 8 -4 8 C-4 12.29 -4 16.58 -4 21 C-4.99 21 -5.98 21 -7 21 C-7 17.04 -7 13.08 -7 9 C-7.66 9 -8.32 9 -9 9 C-9 8.34 -9 7.68 -9 7 C-8.34 6.67 -7.68 6.34 -7 6 C-6.67 5.175 -6.34 4.35 -6 3.5 C-4.58766475 -0.03083811 -3.75258378 0 0 0 Z " fill="#313131" transform="translate(530,266)"/>
<path d="M0 0 C3 0.125 3 0.125 4 1.125 C4.23529412 6.65441176 4.23529412 6.65441176 3 9.125 C1.00045254 9.16754356 -1.00041636 9.16580783 -3 9.125 C-4 8.125 -4 8.125 -4.125 4.625 C-3.9657228 0.16523845 -3.9657228 0.16523845 0 0 Z " fill="#ECECEC" transform="translate(539,274.875)"/>
<path d="M0 0 C3 0.125 3 0.125 4 1.125 C4.1875 4.0625 4.1875 4.0625 4 7.125 C2 9.125 2 9.125 -0.5625 9.3125 C-3 9.125 -3 9.125 -4 8.125 C-4.125 4.625 -4.125 4.625 -4 1.125 C-3 0.125 -3 0.125 0 0 Z " fill="#EDEDED" transform="translate(374,274.875)"/>
<path d="M0 0 C2.875 -0.125 2.875 -0.125 6 0 C8 2 8 2 8.25 4.5 C8 7 8 7 6 9 C2.875 9.125 2.875 9.125 0 9 C0 6.03 0 3.06 0 0 Z " fill="#DDDDDD" transform="translate(154,268)"/>
<path d="M0 0 C0.66 0.33 1.32 0.66 2 1 C0.515 3.475 0.515 3.475 -1 6 C1.64 6 4.28 6 7 6 C7 6.33 7 6.66 7 7 C4.36 7 1.72 7 -1 7 C-0.67 7.99 -0.34 8.98 0 10 C2.64 10.33 5.28 10.66 8 11 C8 11.66 8 12.32 8 13 C5.12529507 14.43735246 3.18105412 14.38172649 0 14 C-2.98637535 11.32797995 -3.91994386 9.81657264 -4.3125 5.8125 C-4 3 -4 3 -3 1 C-2.01 0.67 -1.02 0.34 0 0 Z " fill="#333333" transform="translate(283,273)"/>
<path d="M0 0 C3.3 0 6.6 0 10 0 C10 0.66 10 1.32 10 2 C8.02 2.66 6.04 3.32 4 4 C3.67 7.63 3.34 11.26 3 15 C2.01 15.33 1.02 15.66 0 16 C0 10.72 0 5.44 0 0 Z " fill="#494949" transform="translate(550,272)"/>
<path d="M0 0 C0.99 0 1.98 0 3 0 C3 6.93 3 13.86 3 21 C2.01 21 1.02 21 0 21 C0 14.07 0 7.14 0 0 Z " fill="#424242" transform="translate(417,266)"/>
<path d="M0 0 C3.3 0 6.6 0 10 0 C10 0.66 10 1.32 10 2 C8.02 2.66 6.04 3.32 4 4 C3.67 7.63 3.34 11.26 3 15 C2.01 15.33 1.02 15.66 0 16 C0 10.72 0 5.44 0 0 Z " fill="#494949" transform="translate(385,272)"/>
<path d="M0 0 C3.3 0 6.6 0 10 0 C10 0.66 10 1.32 10 2 C8.02 2.66 6.04 3.32 4 4 C3.67 7.63 3.34 11.26 3 15 C2.01 15 1.02 15 0 15 C0 10.05 0 5.1 0 0 Z " fill="#5F5F5F" transform="translate(200,272)"/>
<path d="M0 0 C0.99 0 1.98 0 3 0 C3 5.94 3 11.88 3 18 C3.66 18 4.32 18 5 18 C5 18.66 5 19.32 5 20 C1.125 19.125 1.125 19.125 0 18 C-0.08631874 16.65732587 -0.10706473 15.31025678 -0.09765625 13.96484375 C-0.09443359 13.15595703 -0.09121094 12.34707031 -0.08789062 11.51367188 C-0.07951172 10.66353516 -0.07113281 9.81339844 -0.0625 8.9375 C-0.05798828 8.08349609 -0.05347656 7.22949219 -0.04882812 6.34960938 C-0.03700373 4.23304337 -0.01906769 2.11651315 0 0 Z " fill="#3A3A3A" transform="translate(486,266)"/>
<path d="M0 0 C1.32 0.33 2.64 0.66 4 1 C3.01 1.495 3.01 1.495 2 2 C2 9.92 2 17.84 2 26 C1.34 26.33 0.68 26.66 0 27 C0 18.09 0 9.18 0 0 Z " fill="#4D4D4D" transform="translate(539,217)"/>
<path d="M0 0 C0.33 0 0.66 0 1 0 C1.6168993 9.9389332 1.6168993 9.9389332 -0.5625 13.6875 C-3.88538036 15.47674327 -6.28519457 15.41275616 -10 15 C-10.66 14.34 -11.32 13.68 -12 13 C-12 12.01 -12 11.02 -12 10 C-11.36191406 10.08378906 -10.72382813 10.16757812 -10.06640625 10.25390625 C-9.24011719 10.35574219 -8.41382813 10.45757812 -7.5625 10.5625 C-6.73878906 10.66691406 -5.91507812 10.77132813 -5.06640625 10.87890625 C-4.38449219 10.91886719 -3.70257813 10.95882813 -3 11 C-1.34623289 9.34623289 -1.36528792 7.19051636 -0.9375 4.9375 C-0.76089844 4.01839844 -0.58429688 3.09929687 -0.40234375 2.15234375 C-0.26957031 1.44207031 -0.13679688 0.73179687 0 0 Z " fill="#1F1F1F" transform="translate(456,278)"/>
<path d="M0 0 C3.6875 0.25 3.6875 0.25 6.125 1.4375 C7.6875 3.25 7.6875 3.25 7.9375 5.9375 C7.855 6.700625 7.7725 7.46375 7.6875 8.25 C7.0275 7.59 6.3675 6.93 5.6875 6.25 C3.47677023 6.00746187 3.47677023 6.00746187 1.0625 6.125 C-0.16339844 6.15207031 -0.16339844 6.15207031 -1.4140625 6.1796875 C-2.35378906 6.21449219 -2.35378906 6.21449219 -3.3125 6.25 C-2.9825 4.93 -2.6525 3.61 -2.3125 2.25 C-2.9725 1.92 -3.6325 1.59 -4.3125 1.25 C-3.3125 0.25 -3.3125 0.25 0 0 Z " fill="#555555" transform="translate(356.3125,271.75)"/>
<path d="M0 0 C3.6875 0.25 3.6875 0.25 6.125 1.4375 C7.6875 3.25 7.6875 3.25 7.9375 5.9375 C7.855 6.700625 7.7725 7.46375 7.6875 8.25 C7.0275 7.59 6.3675 6.93 5.6875 6.25 C3.47677023 6.00746187 3.47677023 6.00746187 1.0625 6.125 C-0.16339844 6.15207031 -0.16339844 6.15207031 -1.4140625 6.1796875 C-2.35378906 6.21449219 -2.35378906 6.21449219 -3.3125 6.25 C-2.9825 4.93 -2.6525 3.61 -2.3125 2.25 C-2.9725 1.92 -3.6325 1.59 -4.3125 1.25 C-3.3125 0.25 -3.3125 0.25 0 0 Z " fill="#555555" transform="translate(301.3125,271.75)"/>
<path d="M0 0 C2.33294775 -0.04241723 4.66702567 -0.04092937 7 0 C8 1 8 1 8.125 3.5 C8 6 8 6 7 7 C4.66702567 7.04092937 2.33294775 7.04241723 0 7 C0 4.69 0 2.38 0 0 Z " fill="#E9E9E9" transform="translate(473,269)"/>
<path d="M0 0 C0.33 0 0.66 0 1 0 C1 4.62 1 9.24 1 14 C0.67 14 0.34 14 0 14 C-0.33 12.35 -0.66 10.7 -1 9 C-1.66 10.65 -2.32 12.3 -3 14 C-3.33 13.34 -3.66 12.68 -4 12 C-6.64 12 -9.28 12 -12 12 C-12.33 11.01 -12.66 10.02 -13 9 C-9.7 8.67 -6.4 8.34 -3 8 C-2.01 5.36 -1.02 2.72 0 0 Z " fill="#DBDBDB" transform="translate(199,272)"/>
<path d="M0 0 C3.33333333 0 6.66666667 0 10 0 C10 1.98 10 3.96 10 6 C6.37 6.33 2.74 6.66 -1 7 C-1 3 -1 3 0 0 Z " fill="#696969" transform="translate(170,275)"/>
<path d="M0 0 C0.66 0.33 1.32 0.66 2 1 C1.01 2.32 0.02 3.64 -1 5 C1.97 5 4.94 5 8 5 C8.33 4.34 8.66 3.68 9 3 C9 4.32 9 5.64 9 7 C5.37 7 1.74 7 -2 7 C-2 7.66 -2 8.32 -2 9 C-2.66 9 -3.32 9 -4 9 C-4 6.69 -4 4.38 -4 2 C-2.125 0.9375 -2.125 0.9375 0 0 Z " fill="#3C3C3C" transform="translate(354,273)"/>
<path d="M0 0 C2.31 0 4.62 0 7 0 C5.02 0.99 5.02 0.99 3 2 C3.01160156 2.71285156 3.02320313 3.42570312 3.03515625 4.16015625 C3.08606026 9.56325366 2.94608271 14.67828475 2 20 C1.34 20 0.68 20 0 20 C0 13.4 0 6.8 0 0 Z " fill="#1B1B1B" transform="translate(264,266)"/>
<path d="M0 0 C2 2 2 2 2.1953125 4.8203125 C2.16050781 6.45613281 2.16050781 6.45613281 2.125 8.125 C2.10695313 9.22070312 2.08890625 10.31640625 2.0703125 11.4453125 C2.04710937 12.28835938 2.02390625 13.13140625 2 14 C1.34 14 0.68 14 0 14 C-0.33 10.7 -0.66 7.4 -1 4 C-3.64 3.34 -6.28 2.68 -9 2 C-5.54754176 -0.30163882 -4.05261287 -0.34490322 0 0 Z " fill="#252525" transform="translate(582,272)"/>
<path d="M0 0 C4.42238066 0.36853172 5.72421946 1.13155123 8.75 4.3125 C9.23828125 7.546875 9.23828125 7.546875 9.0625 11.0625 C9.01738281 12.23296875 8.97226562 13.4034375 8.92578125 14.609375 C8.86777344 15.50140625 8.80976563 16.3934375 8.75 17.3125 C8.42 17.3125 8.09 17.3125 7.75 17.3125 C7.62625 16.075 7.5025 14.8375 7.375 13.5625 C6.86721128 9.13260334 6.86721128 9.13260334 4.75 5.3125 C1.82085835 4.14167122 1.82085835 4.14167122 -1.25 3.3125 C-2.24 2.6525 -3.23 1.9925 -4.25 1.3125 C-3.25 0.3125 -3.25 0.3125 0 0 Z " fill="#545454" transform="translate(449.25,271.6875)"/>
<path d="M0 0 C1.99954746 -0.04254356 4.00041636 -0.04080783 6 0 C7 1 7 1 7.125 3.5 C7 6 7 6 6 7 C4.00041636 7.04080783 1.99954746 7.04254356 0 7 C0 4.69 0 2.38 0 0 Z " fill="#F4F4F4" transform="translate(267,269)"/>
<path d="M0 0 C0.99 0.33 1.98 0.66 3 1 C3 2.32 3 3.64 3 5 C4.98 5 6.96 5 9 5 C9.12375 4.360625 9.2475 3.72125 9.375 3.0625 C9.58125 2.381875 9.7875 1.70125 10 1 C10.66 0.67 11.32 0.34 12 0 C11.34 1.98 10.68 3.96 10 6 C9.34 6 8.68 6 8 6 C8 6.66 8 7.32 8 8 C6.35 8 4.7 8 3 8 C3 10.64 3 13.28 3 16 C2.67 16 2.34 16 2 16 C2 11.38 2 6.76 2 2 C1.34 2 0.68 2 0 2 C-0.33 2.99 -0.66 3.98 -1 5 C-0.67 3.35 -0.34 1.7 0 0 Z " fill="#989898" transform="translate(513,267)"/>
<path d="M0 0 C-0.99 0.66 -1.98 1.32 -3 2 C-3.25660094 5.07921132 -3.39431504 7.21136993 -2 10 C0.01669827 11.13350534 0.01669827 11.13350534 2 12 C-3.42168675 12.48192771 -3.42168675 12.48192771 -5.875 10.4375 C-7.3704944 7.19726212 -7.20330402 4.52393641 -7 1 C-3.375 -1.125 -3.375 -1.125 0 0 Z " fill="#353535" transform="translate(241,274)"/>
<path d="M0 0 C2.64 0 5.28 0 8 0 C8.66 1.32 9.32 2.64 10 4 C6.7 3.67 3.4 3.34 0 3 C0 5.31 0 7.62 0 10 C1.98 10 3.96 10 6 10 C6 10.33 6 10.66 6 11 C3.69 11 1.38 11 -1 11 C-1.0270043 9.54176788 -1.04639787 8.08339325 -1.0625 6.625 C-1.07410156 5.81289063 -1.08570313 5.00078125 -1.09765625 4.1640625 C-1 2 -1 2 0 0 Z " fill="#565656" transform="translate(473,266)"/>
<path d="M0 0 C2.97 0 5.94 0 9 0 C9 0.66 9 1.32 9 2 C7.02 2.66 5.04 3.32 3 4 C2.67 7.3 2.34 10.6 2 14 C1.34 14 0.68 14 0 14 C0 9.38 0 4.76 0 0 Z " fill="#2A2A2A" transform="translate(313,272)"/>
<path d="M0 0 C3.3 0 6.6 0 10 0 C10 1.98 10 3.96 10 6 C9.67 5.34 9.34 4.68 9 4 C6.36 4 3.72 4 1 4 C0.67 2.68 0.34 1.36 0 0 Z " fill="#C7C7C7" transform="translate(282,280)"/>
<path d="M0 0 C2.64 0 5.28 0 8 0 C6.68 0.33 5.36 0.66 4 1 C4 5.29 4 9.58 4 14 C3.34 13.67 2.68 13.34 2 13 C2 9.7 2 6.4 2 3 C-0.31 3 -2.62 3 -5 3 C-5 2.67 -5 2.34 -5 2 C-3.35 2 -1.7 2 0 2 C0 1.34 0 0.68 0 0 Z " fill="#B9B9B9" transform="translate(560,272)"/>
<path d="M0 0 C2.64 0 5.28 0 8 0 C6.68 0.33 5.36 0.66 4 1 C4 5.29 4 9.58 4 14 C3.34 13.67 2.68 13.34 2 13 C2 9.7 2 6.4 2 3 C-0.31 3 -2.62 3 -5 3 C-5 2.67 -5 2.34 -5 2 C-3.35 2 -1.7 2 0 2 C0 1.34 0 0.68 0 0 Z " fill="#BABABA" transform="translate(395,272)"/>
<path d="M0 0 C0.66 0.33 1.32 0.66 2 1 C0.88200014 2.33920838 -0.24461897 3.67122556 -1.375 5 C-2.00148437 5.7425 -2.62796875 6.485 -3.2734375 7.25 C-4.12808594 8.11625 -4.12808594 8.11625 -5 9 C-5.66 9 -6.32 9 -7 9 C-7.33 12.96 -7.66 16.92 -8 21 C-8.33 21 -8.66 21 -9 21 C-9.50453712 14.03458478 -9.20796217 9.68643536 -5 4 C-2.25 1.5625 -2.25 1.5625 0 0 Z " fill="#444444" transform="translate(159,156)"/>
<path d="M0 0 C0.33 0 0.66 0 1 0 C1.66 2.31 2.32 4.62 3 7 C5.64 7.33 8.28 7.66 11 8 C11 8.66 11 9.32 11 10 C7.8125 10.8125 7.8125 10.8125 4 11 C1.0625 8.875 1.0625 8.875 -1 6 C-1.375 3.25 -1.375 3.25 -1 1 C-0.67 0.67 -0.34 0.34 0 0 Z " fill="#383838" transform="translate(184,276)"/>
<path d="M0 0 C0 0.99 0 1.98 0 3 C-0.99 3 -1.98 3 -3 3 C-4.67099977 3.31088368 -6.33871537 3.64080332 -8 4 C-8.33 5.98 -8.66 7.96 -9 10 C-9.33 10 -9.66 10 -10 10 C-10.33 8.35 -10.66 6.7 -11 5 C-11.33 6.65 -11.66 8.3 -12 10 C-12.33 10 -12.66 10 -13 10 C-13.31068741 6.58243849 -13.3625104 4.59893023 -11.5625 1.625 C-7.79880462 -0.76173366 -4.34043107 -0.33387931 0 0 Z " fill="#717171" transform="translate(544,272)"/>
<path d="M0 0 C0.66 0.33 1.32 0.66 2 1 C1.36191406 1.69867188 0.72382813 2.39734375 0.06640625 3.1171875 C-0.75988281 4.02726563 -1.58617187 4.93734375 -2.4375 5.875 C-3.26121094 6.77992188 -4.08492187 7.68484375 -4.93359375 8.6171875 C-7.00907942 10.81137927 -7.00907942 10.81137927 -8 13 C-8.99 12.67 -9.98 12.34 -11 12 C-9.55928394 8.58301375 -7.76769435 6.68041215 -4.9375 4.3125 C-3.86822266 3.40951172 -3.86822266 3.40951172 -2.77734375 2.48828125 C-1.89755859 1.75158203 -1.89755859 1.75158203 -1 1 C-0.67 0.67 -0.34 0.34 0 0 Z " fill="#BFBFBF" transform="translate(243,186)"/>
<path d="M0 0 C-0.875 3.875 -0.875 3.875 -2 5 C-4.875 5.25 -4.875 5.25 -8 5 C-9.6953125 3.484375 -9.6953125 3.484375 -11 2 C-9.5422647 1.664061 -8.08378894 1.33133376 -6.625 1 C-5.40683594 0.7215625 -5.40683594 0.7215625 -4.1640625 0.4375 C-2 0 -2 0 0 0 Z " fill="#C4C4C4" transform="translate(455,285)"/>
<path d="M0 0 C0.66 0.33 1.32 0.66 2 1 C1.04882866 2.1725131 0.08882991 3.33787015 -0.875 4.5 C-1.40867187 5.1496875 -1.94234375 5.799375 -2.4921875 6.46875 C-2.98976563 6.9740625 -3.48734375 7.479375 -4 8 C-4.66 8 -5.32 8 -6 8 C-6.33 11.96 -6.66 15.92 -7 20 C-7.33 20 -7.66 20 -8 20 C-8.44253448 8.71537078 -8.44253448 8.71537078 -4.53125 4.3671875 C-3.05838287 2.87347791 -1.53245433 1.43251166 0 0 Z " fill="#4B4B4B" transform="translate(352,157)"/>
<path d="M0 0 C0.66 0.99 1.32 1.98 2 3 C4.19454681 3.57993699 4.19454681 3.57993699 6.625 3.6875 C7.44226563 3.75324219 8.25953125 3.81898438 9.1015625 3.88671875 C9.72804688 3.92410156 10.35453125 3.96148437 11 4 C10.67 4.99 10.34 5.98 10 7 C2.60045489 7.36391205 2.60045489 7.36391205 -0.0625 5.75 C-1 4 -1 4 -0.6875 1.8125 C-0.460625 1.214375 -0.23375 0.61625 0 0 Z " fill="#4D4D4D" transform="translate(297,280)"/>
<path d="M0 0 C6.35368578 -0.47952345 6.35368578 -0.47952345 8.9375 1.4375 C10.52203208 5.25901854 10.23546395 8.91862491 10 13 C9.34 13 8.68 13 8 13 C7 10 7 10 7.0625 6.9375 C7.33623843 3.87496819 7.33623843 3.87496819 5 2 C2.42938689 1.35232207 2.42938689 1.35232207 0 1 C0 0.67 0 0.34 0 0 Z " fill="#202020" transform="translate(371,273)"/>
<path d="M0 0 C0.66 0.66 1.32 1.32 2 2 C1.20335937 2.04898438 0.40671875 2.09796875 -0.4140625 2.1484375 C-8.38157314 2.70029395 -8.38157314 2.70029395 -16 5 C-11.73227671 -0.88651489 -7.00843116 -1.07214325 0 0 Z " fill="#A8A8A8" transform="translate(561,183)"/>
<path d="M0 0 C1.67542976 0.28604898 3.34385343 0.61781233 5 1 C5 1.99 5 2.98 5 4 C4.443125 3.731875 3.88625 3.46375 3.3125 3.1875 C2.1678125 3.0946875 2.1678125 3.0946875 1 3 C-1.64587234 5.39585286 -1.64587234 5.39585286 -4 8 C-4.66 8 -5.32 8 -6 8 C-6 8.66 -6 9.32 -6 10 C-6.66 9.67 -7.32 9.34 -8 9 C-6.85459775 7.68712379 -5.70866567 6.37470979 -4.5625 5.0625 C-3.92441406 4.33160156 -3.28632812 3.60070312 -2.62890625 2.84765625 C-1.77458541 1.87860647 -0.91348825 0.91348825 0 0 Z " fill="#5DC7FF" transform="translate(574,76)"/>
<path d="M0 0 C0.33 0 0.66 0 1 0 C1.84098656 4.01804691 2.05404945 7.01803543 1 11 C0.34 10.34 -0.32 9.68 -1 9 C-1.99 9.495 -1.99 9.495 -3 10 C-5.3329866 10.04022391 -7.66706666 10.04320247 -10 10 C-10 11.98 -10 13.96 -10 16 C-10.33 16 -10.66 16 -11 16 C-11 13.69 -11 11.38 -11 9 C-8.03 8.34 -5.06 7.68 -2 7 C-1.34 4.69 -0.68 2.38 0 0 Z " fill="#CACACA" transform="translate(165,270)"/>
<path d="M0 0 C0.33 0 0.66 0 1 0 C1.33 2.64 1.66 5.28 2 8 C2.99 8.33 3.98 8.66 5 9 C5 9.99 5 10.98 5 12 C0.125 11.125 0.125 11.125 -1 10 C-1.0979057 8.50261876 -1.12974864 7.00057108 -1.125 5.5 C-1.12757813 4.6853125 -1.13015625 3.870625 -1.1328125 3.03125 C-1 1 -1 1 0 0 Z " fill="#363636" transform="translate(226,275)"/>
<path d="M0 0 C1.98 0 3.96 0 6 0 C5.51917969 0.38800781 5.03835938 0.77601563 4.54296875 1.17578125 C2.54250502 3.54088647 2.51123932 5.12691453 2.3125 8.1875 C2.24675781 9.08855469 2.18101562 9.98960937 2.11328125 10.91796875 C2.07589844 11.60503906 2.03851563 12.29210937 2 13 C1.34 13 0.68 13 0 13 C0 8.71 0 4.42 0 0 Z " fill="#252525" transform="translate(426,273)"/>
<path d="M0 0 C0.66 0.99 1.32 1.98 2 3 C3.96361864 3.57748803 3.96361864 3.57748803 6.125 3.6875 C7.40375 3.790625 8.6825 3.89375 10 4 C10 4.66 10 5.32 10 6 C7.20129973 7.39935013 5.09501208 7.25265405 2 7 C0.0625 5.75 0.0625 5.75 -1 4 C-0.6875 1.8125 -0.6875 1.8125 0 0 Z " fill="#454545" transform="translate(281,280)"/>
<path d="M0 0 C3.3 0 6.6 0 10 0 C10 1.65 10 3.3 10 5 C8.51793505 4.745504 7.03931385 4.47088238 5.5625 4.1875 C4.73878906 4.03667969 3.91507813 3.88585937 3.06640625 3.73046875 C2.38449219 3.48941406 1.70257813 3.24835938 1 3 C0.67 2.01 0.34 1.02 0 0 Z " fill="#DADADA" transform="translate(170,281)"/>
<path d="M0 0 C2.31 0.33 4.62 0.66 7 1 C6.67 4.96 6.34 8.92 6 13 C5.34 13 4.68 13 4 13 C3.67 9.04 3.34 5.08 3 1 C2.01 0.67 1.02 0.34 0 0 Z " fill="#1D1D1D" transform="translate(569,273)"/>
<path d="M0 0 C3.96 0.33 7.92 0.66 12 1 C11.01 2.485 11.01 2.485 10 4 C5.65413172 4.39507893 3.67996503 4.45331002 0 2 C0 1.34 0 0.68 0 0 Z " fill="#555555" transform="translate(167,283)"/>
<path d="M0 0 C2.375 0.3125 2.375 0.3125 5 1 C7.13586678 4.20380017 7.23132175 5.01939967 7.125 8.6875 C7.10695313 9.49574219 7.08890625 10.30398438 7.0703125 11.13671875 C7.03550781 12.05904297 7.03550781 12.05904297 7 13 C6.34 13 5.68 13 5 13 C4 10 4 10 4.1875 7.0625 C4.29776944 3.87463238 4.29776944 3.87463238 2 1.625 C1.34 1.08875 0.68 0.5525 0 0 Z " fill="#242424" transform="translate(501,273)"/>
<path d="M0 0 C0.33 0 0.66 0 1 0 C1 2.97 1 5.94 1 9 C1.66 9.33 2.32 9.66 3 10 C-0.63 10 -4.26 10 -8 10 C-6 7 -6 7 -3.4375 6.125 C-2.2309375 5.568125 -2.2309375 5.568125 -1 5 C-0.10613836 2.45224694 -0.10613836 2.45224694 0 0 Z " fill="#656565" transform="translate(505,277)"/>
<path d="M0 0 C2.97 0 5.94 0 9 0 C9.33 1.65 9.66 3.3 10 5 C6.7 4.34 3.4 3.68 0 3 C0 2.01 0 1.02 0 0 Z " fill="#D9D9D9" transform="translate(354,281)"/>
<path d="M0 0 C0 0.66 0 1.32 0 2 C-2.64 2.66 -5.28 3.32 -8 4 C-8 7.3 -8 10.6 -8 14 C-8.33 14 -8.66 14 -9 14 C-9 9.71 -9 5.42 -9 1 C-5.68756695 0.17189174 -3.34023421 -0.09278428 0 0 Z " fill="#282828" transform="translate(210,272)"/>
<path d="M0 0 C0.33 0 0.66 0 1 0 C1 2.97 1 5.94 1 9 C1.66 9.33 2.32 9.66 3 10 C-0.63 10 -4.26 10 -8 10 C-6 7 -6 7 -3.4375 6.125 C-2.2309375 5.568125 -2.2309375 5.568125 -1 5 C-0.10613836 2.45224694 -0.10613836 2.45224694 0 0 Z " fill="#707070" transform="translate(378,277)"/>
<path d="M0 0 C0.66 0 1.32 0 2 0 C1.67515625 0.56589844 1.3503125 1.13179687 1.015625 1.71484375 C-0.08918097 4.20065719 -0.26829435 5.85951047 -0.25 8.5625 C-0.25515625 9.32691406 -0.2603125 10.09132812 -0.265625 10.87890625 C-0.1229561 13.29982762 -0.1229561 13.29982762 2 16 C0.05859375 15.26953125 0.05859375 15.26953125 -2 14 C-3.50590937 9.81143241 -3.42465882 5.99087059 -1.6875 1.9375 C-1.130625 1.298125 -0.57375 0.65875 0 0 Z " fill="#B6B6B6" transform="translate(162,165)"/>
<path d="M0 0 C0.99 0.33 1.98 0.66 3 1 C2.67 4.96 2.34 8.92 2 13 C1.34 13 0.68 13 0 13 C0 8.71 0 4.42 0 0 Z " fill="#1D1D1D" transform="translate(399,273)"/>
<path d="M0 0 C6.625 -0.25 6.625 -0.25 10 2 C10.1875 5.625 10.1875 5.625 10 9 C9.01 9.495 9.01 9.495 8 10 C7.79375 8.88625 7.5875 7.7725 7.375 6.625 C6.38371699 2.73400805 6.38371699 2.73400805 2.875 1.5625 C1.92625 1.376875 0.9775 1.19125 0 1 C0 0.67 0 0.34 0 0 Z " fill="#2B2B2B" transform="translate(536,273)"/>
<path d="M0 0 C0.33 0 0.66 0 1 0 C1.226875 1.11375 1.45375 2.2275 1.6875 3.375 C2.60623658 7.16038373 2.60623658 7.16038373 5.625 8.4375 C6.40875 8.623125 7.1925 8.80875 8 9 C8 9.33 8 9.66 8 10 C4.625 10.1875 4.625 10.1875 1 10 C-1.29404844 6.55892734 -1.26293056 5.03160191 -1 1 C-0.67 0.67 -0.34 0.34 0 0 Z " fill="#252525" transform="translate(368,276)"/>
<path d="M0 0 C1 3 1 3 0 6 C0 6.99 0 7.98 0 9 C-1.32 8.67 -2.64 8.34 -4 8 C-4 6.35 -4 4.7 -4 3 C-2.68 2.67 -1.36 2.34 0 2 C0 1.34 0 0.68 0 0 Z " fill="#A7A7A7" transform="translate(530,266)"/>
<path d="M0 0 C0.66 0.33 1.32 0.66 2 1 C0.90344712 2.31886772 -0.20253423 3.62990057 -1.3125 4.9375 C-1.92738281 5.66839844 -2.54226563 6.39929688 -3.17578125 7.15234375 C-5 9 -5 9 -8 10 C-6.34908222 5.70761377 -3.26245434 3.1206085 0 0 Z " fill="#3E3E3E" transform="translate(479,178)"/>
<path d="M0 0 C0.33 0 0.66 0 1 0 C1.309375 1.11375 1.61875 2.2275 1.9375 3.375 C2.82326483 6.7945155 2.82326483 6.7945155 4 9 C1.36 9.33 -1.28 9.66 -4 10 C-3.01 9.67 -2.02 9.34 -1 9 C-1 8.34 -1 7.68 -1 7 C-1.66 6.67 -2.32 6.34 -3 6 C-2.01 6 -1.02 6 0 6 C0 4.02 0 2.04 0 0 Z " fill="#C5C5C5" transform="translate(492,277)"/>
<path d="M0 0 C2.64 0 5.28 0 8 0 C8 0.99 8 1.98 8 3 C5.36 3 2.72 3 0 3 C0 2.01 0 1.02 0 0 Z " fill="#434343" transform="translate(252,278)"/>
<path d="M0 0 C2.64 0 5.28 0 8 0 C8 0.99 8 1.98 8 3 C5.36 3 2.72 3 0 3 C0 2.01 0 1.02 0 0 Z " fill="#434343" transform="translate(212,278)"/>
<path d="M0 0 C0.66 0 1.32 0 2 0 C1.34 4.62 0.68 9.24 0 14 C-0.33 14 -0.66 14 -1 14 C-1 11.36 -1 8.72 -1 6 C-1.66 6 -2.32 6 -3 6 C-3 5.01 -3 4.02 -3 3 C-2.01 3 -1.02 3 0 3 C0 2.01 0 1.02 0 0 Z " fill="#555555" transform="translate(513,269)"/>
<path d="M0 0 C0.66 0.33 1.32 0.66 2 1 C0.38405168 3.04119788 -1.2856382 5.04072937 -3 7 C-3.66 7 -4.32 7 -5 7 C-5 7.99 -5 8.98 -5 10 C-5.66 10 -6.32 10 -7 10 C-5.6062718 5.56541027 -3.39417765 3.12621626 0 0 Z " fill="#454545" transform="translate(541,179)"/>
<path d="M0 0 C1.31571603 0.2547514 2.62760376 0.52934141 3.9375 0.8125 C4.66839844 0.96332031 5.39929688 1.11414063 6.15234375 1.26953125 C6.76207031 1.51058594 7.37179687 1.75164062 8 2 C8.33 2.99 8.66 3.98 9 5 C5.625 5.125 5.625 5.125 2 5 C1.34 4.34 0.68 3.68 0 3 C0 2.01 0 1.02 0 0 Z " fill="#5D5D5D" transform="translate(444,288)"/>
<path d="M0 0 C0.66 0.66 1.32 1.32 2 2 C3.98821313 2.39764263 5.98944339 2.73775349 8 3 C8 3.33 8 3.66 8 4 C5.69 4 3.38 4 1 4 C1.33 4.99 1.66 5.98 2 7 C1.01 7 0.02 7 -1 7 C-1.04254356 5.00045254 -1.04080783 2.99958364 -1 1 C-0.67 0.67 -0.34 0.34 0 0 Z " fill="#292929" transform="translate(168,276)"/>
<path d="M0 0 C2.31 0 4.62 0 7 0 C7.33 0.99 7.66 1.98 8 3 C5.36 3 2.72 3 0 3 C0 2.01 0 1.02 0 0 Z " fill="#D1D1D1" transform="translate(186,275)"/>
<path d="M0 0 C2.31 0 4.62 0 7 0 C7 0.99 7 1.98 7 3 C4.36 3 1.72 3 -1 3 C-0.67 2.01 -0.34 1.02 0 0 Z " fill="#CFCFCF" transform="translate(170,275)"/>
<path d="M0 0 C2.31 0 4.62 0 7 0 C7 0.99 7 1.98 7 3 C4.36 3 1.72 3 -1 3 C-0.67 2.01 -0.34 1.02 0 0 Z " fill="#D1D1D1" transform="translate(354,275)"/>
<path d="M0 0 C2.31 0 4.62 0 7 0 C7 0.99 7 1.98 7 3 C4.36 3 1.72 3 -1 3 C-0.67 2.01 -0.34 1.02 0 0 Z " fill="#D1D1D1" transform="translate(299,275)"/>
<path d="M0 0 C2.3125 -0.25 2.3125 -0.25 5 0 C6.8125 1.8125 6.8125 1.8125 8 4 C8 4.99 8 5.98 8 7 C7.34 7 6.68 7 6 7 C5.6596875 6.0409375 5.6596875 6.0409375 5.3125 5.0625 C4.14749104 2.72806339 4.14749104 2.72806339 1.375 2.25 C0.59125 2.1675 -0.1925 2.085 -1 2 C-0.67 1.34 -0.34 0.68 0 0 Z " fill="#2E2E2E" transform="translate(188,272)"/>
<path d="M0 0 C0 0.66 0 1.32 0 2 C-3.4019487 4.09350689 -6.05272412 4.17942163 -10 4 C-9.67 3.01 -9.34 2.02 -9 1 C-3.79245283 -1.26415094 -3.79245283 -1.26415094 0 0 Z " fill="#5A5A5A" transform="translate(248,283)"/>
<path d="M0 0 C0.5775 0.763125 1.155 1.52625 1.75 2.3125 C3.71703093 4.66200917 5.48476744 6.29323505 8 8 C5.125 8.125 5.125 8.125 2 8 C0 6 0 6 -0.125 2.875 C-0.08375 1.92625 -0.0425 0.9775 0 0 Z " fill="#292929" transform="translate(494,278)"/>
<path d="M0 0 C1.98 0 3.96 0 6 0 C6.33 0.99 6.66 1.98 7 3 C4.36 3 1.72 3 -1 3 C-0.67 2.01 -0.34 1.02 0 0 Z " fill="#D6D6D6" transform="translate(283,275)"/>
<path d="M0 0 C0 0.99 0 1.98 0 3 C-2.95664519 4.4783226 -5.74229737 4.06032783 -9 4 C-9 3.34 -9 2.68 -9 2 C-2.25 0 -2.25 0 0 0 Z " fill="#282828" transform="translate(163,275)"/>
<path d="M0 0 C0.33 0 0.66 0 1 0 C1.33 2.31 1.66 4.62 2 7 C0.25 8.125 0.25 8.125 -2 9 C-4.25 8.125 -4.25 8.125 -6 7 C-4.35 7 -2.7 7 -1 7 C-0.67 4.69 -0.34 2.38 0 0 Z " fill="#4C4C4C" transform="translate(543,277)"/>
<path d="M0 0 C0.66 0 1.32 0 2 0 C2 1.98 2 3.96 2 6 C2.66 6 3.32 6 4 6 C3.67 8.64 3.34 11.28 3 14 C2.67 14 2.34 14 2 14 C1.34 9.38 0.68 4.76 0 0 Z " fill="#CBCBCB" transform="translate(276,268)"/>
<path d="M0 0 C0.66 0 1.32 0 2 0 C5.00617269 3.00617269 4.59585316 5.82381598 5 10 C4.34 9.67 3.68 9.34 3 9 C3 8.01 3 7.02 3 6 C2.34 6 1.68 6 1 6 C0.67 4.02 0.34 2.04 0 0 Z " fill="#C0C0C0" transform="translate(179,274)"/>
<path d="M0 0 C0.99 0 1.98 0 3 0 C3 1.98 3 3.96 3 6 C2.01 6 1.02 6 0 6 C0 4.02 0 2.04 0 0 Z " fill="#8D8D8D" transform="translate(417,266)"/>
<path d="M0 0 C-0.99 0.495 -0.99 0.495 -2 1 C-2 1.66 -2 2.32 -2 3 C-4.31 2.67 -6.62 2.34 -9 2 C-5.5647952 -0.29013653 -4.014669 -0.17842973 0 0 Z " fill="#4C4C4C" transform="translate(582,272)"/>
</svg>
